<?xml version="1.0" standalone="yes"?>
<svg xmlns="http://www.w3.org/2000/svg" width="888" height="508">
<path style="fill:#282828; stroke:none;" d="M290 200C266.489 186.357 232.409 193.828 210.797 207.053C198.351 214.669 184.055 221.507 173.207 231.338C153.012 249.64 141.872 278.31 135.118 304C130.083 323.152 127.837 349.339 135.64 368C138.232 374.2 141.243 382.677 148 385C144.601 370.258 138.441 355.355 138.027 340C137.023 302.742 154.45 258.158 182.207 233.172C188.955 227.097 198.275 223.577 206 218.876C217.203 212.059 227.79 203.446 241 200.8C255.663 197.863 270.532 203.241 285 204C267.129 233.496 257.931 268.218 245.328 300C241.141 310.559 235.004 332.958 224.415 339C216.396 343.576 201.951 326.148 191.011 331.094C181.594 335.351 178.578 349.886 185.773 357.517C201.294 373.98 211.935 354.541 226.027 350.669C230.281 349.5 235.957 352.566 240 353.616C248.979 355.949 259.638 354.238 268 358C274.525 353.436 283.992 353.745 291.196 350.155C320.465 335.57 346.317 312.59 341.684 277C338.869 255.379 328.845 234.004 315.047 217.194C310.916 212.162 295.031 205.737 299.952 198.192C315.107 174.956 348.958 161.26 373 150.452C395.397 140.384 417.983 127.378 441.941 121.449C453.431 118.605 467.097 119.025 478.804 118.773C511.467 118.068 546.046 118.713 578 126.794C592.08 130.356 608.713 136.835 620.885 144.854C628.935 150.157 634.908 158.243 643.032 163.417C647.223 166.085 659.495 179.314 664.341 176.694C672.562 172.25 649.664 158.988 647 156C638.629 154.77 631.434 143.941 624.58 139.196C612.47 130.814 595.654 124.792 581.432 121.228C538.564 110.486 484.475 104.948 441 114.512C415.922 120.029 392.551 134.125 369 143.863C342.836 154.682 303.248 173.2 290 200M631 145L630 146L631 145M312 180L309 183C309.899 180.876 309.876 180.899 312 180M283 218C285.391 216.032 288.541 211.004 291.574 210.338C299.796 208.532 310.707 224.523 314.249 230.026C326.228 248.637 337.661 270.915 334.53 294C330.938 320.479 293.849 351.285 267 350.962C261.473 350.896 234.646 351.099 233.006 344.466C231.024 336.454 245.748 319.361 249.054 312C258.671 290.584 265.577 268.128 273.354 246C276.403 237.326 282.939 227.27 283 218M659 242C659.489 220.004 691.474 233.539 682.901 246.792C678.393 253.761 669.344 254.882 661.99 256.631C641.836 261.422 603.434 264.386 603 292C610.324 290.449 614.563 280.21 621 276C616.994 293.615 609.883 311.788 604.204 329C601.444 337.367 599.728 347.777 593.198 354.244C583.279 364.067 560.188 357.101 553.839 372.502C550.607 380.341 557.088 386.949 565 385.524C574.342 383.842 587.537 374.945 591 366C604.041 363.764 615.962 358.73 630 359C642.163 350.447 657.826 351.673 669.863 341.233C679.551 332.83 690.451 323.193 693.304 310C693.844 307.504 695.724 296.832 691.795 296.13C687.799 295.416 686.394 302.417 685.987 305C682.781 325.33 664.23 327.883 656 343C649.128 342.589 643.802 346.461 637.373 348.086C626.06 350.945 614.481 352.089 603 354C608.054 342.602 610.965 318.717 620.156 310.792C632.686 299.988 650.15 292.324 666 288.469C670.216 287.443 679.48 283.686 679.203 278.04C678.972 273.306 666.307 280.194 664.01 280.929C647.503 286.211 632.71 295.025 618 304C622.705 295.204 621.659 282.408 627.146 274.51C629.736 270.783 637.804 268.979 642 268.03C656.131 264.833 671.885 259.849 686 258C688.506 252.92 693.935 248.187 693.055 242C690.85 226.513 668.011 216.216 655.903 227.034C648.179 233.935 650.133 256.545 663.698 249.227C669.262 246.226 661.851 242.402 659 242M382 382L382 384C393.476 386.559 403.947 378.373 412.115 371.109C424.881 359.755 435.222 345.623 444 331C448.862 322.901 453.042 311.318 460.255 305.125C470.306 296.496 494.82 292.925 499 280C486.829 278.177 474.934 289.383 464 294C482.209 268.391 495.382 243.998 529 237.501C537.251 235.907 544.73 233.392 552.94 237.438C571.054 246.364 552.451 260.307 548.365 268.664C546.616 272.243 552.251 274.735 554.974 273.999C570.924 269.684 572.1 242.791 560.404 234.205C546.375 223.906 523.369 229.394 509 236.046C477.719 250.527 465.291 279.231 449.307 307.433C431.542 338.777 413.049 363.4 382 382M676 365C684.125 359.307 693.765 356.639 701.843 351.33C704.196 349.784 706.262 345.305 702.587 343.805C694.107 340.342 674.232 357.637 667 361.298C660.824 364.425 653.685 361.41 647.059 362.255C629.599 364.482 611.218 368.88 597.011 379.929C589.805 385.533 580.793 400.858 590.534 408.675C597.144 413.981 607.714 408.441 614 405.198C632.368 395.72 647.147 382.848 664.19 371.508C669.914 367.7 684.897 370.201 692 369.8C705.587 369.034 719.517 362.202 728.471 351.973C756.391 320.08 715.139 285.447 733.515 251.01C739.669 239.477 755.149 233.748 767.99 236.97C781.804 240.436 780.087 255.668 772.093 264.244C763.593 273.364 757.347 262.126 757 254C742.637 258.979 757.511 278.748 768.989 275.188C786.13 269.871 790.604 247.336 778.487 235.496C766.996 224.266 740.468 229.755 730.54 240.52C699.567 274.099 750.725 316.728 720.573 347.617C716.705 351.579 712.356 355.215 707.575 358.022C697.422 363.983 686.76 361.941 676 365M329.667 253.667C329.722 253.722 329.778 254.778 329.333 254.333C329.278 254.278 329.222 253.222 329.667 253.667M426 278C408.244 269.471 397.417 255.702 376 260.411C371.064 261.497 358.581 266.661 360.123 273.577C360.784 276.543 380.33 266.436 383 264C393.484 267.827 415.743 273.112 420.403 285.122C422.222 289.809 417.344 294.865 415.741 299.003C410.017 313.779 402.606 330.759 392.262 342.885C387.141 348.886 368.095 358.975 369 366C392.207 364.138 408.068 336.445 415.799 317C419.359 308.046 422.544 294.445 429.507 287.331C435.3 281.411 469.49 281.805 461 263C465.143 255.255 454.472 253.241 449.01 255.315C439.375 258.976 430.317 268.878 426 278M434 278C437.298 269.12 445.036 265.601 451 259C465.54 265.135 441.385 277.995 434 278M534 275C526.329 292.905 523.303 312.608 516.517 331C514.751 335.787 507.375 345.943 508.882 350.82C510.559 356.247 521.428 353.669 525.999 354.54C545.259 358.208 570.981 358.175 586.286 344.313C591.053 339.996 597.143 332.935 596.643 326.024C595.935 316.236 580.875 312.011 573.001 314.933C564.031 318.262 552.956 336.662 568.312 339.41C575.939 340.775 577.138 331.465 568 332C570.074 325.758 584.377 312.849 588.373 325.068C590.553 331.735 579.964 339.735 575.088 342.207C556.759 351.499 537.767 347.905 518 346C526.609 330.758 533.283 308.501 534.023 291C534.255 285.505 536.732 280.116 534 275M394 306C403.715 305.271 411.518 289.741 397 294C396.757 294.776 396.233 297.83 394.57 296.798C387.296 292.282 388.659 273.585 374.015 277.532C356.234 282.326 338.373 309.746 336.16 327C333.89 344.691 346.799 358.771 364.335 349.856C379.933 341.926 392.445 323.285 394 306M511 283C506.143 275.14 501.279 287.652 499.658 292.088C493.716 308.344 488.229 324.852 482.169 341C480.604 345.17 474.995 358.439 480.374 361.614C485.75 364.787 488.613 348.179 489.587 345C494.034 330.488 498.631 316.379 503.494 302C505.58 295.834 506.448 287.779 511 283M377 283C384.472 287.939 386.031 293.605 388 302C377.508 300.892 367.005 293.404 377 283M365 286C364.264 297.9 373.435 307.036 385 308C383.714 321.747 375.517 332.273 364.999 340.723C361.25 343.736 353.153 347.418 348.529 344.168C330.772 331.686 355.758 296.291 365 286M200 336.927C203.649 337.305 215.971 341.067 216.941 345.27C218.164 350.566 202.619 356.114 199.004 355.709C187.762 354.449 187.727 335.658 200 336.927M581 367C576.901 373.651 567.576 378.676 560 380C560.995 370.638 572.834 367.345 581 367M655 368C647.088 381.206 624.919 392.406 611.056 398.496C607.378 400.111 598.882 406.713 595.16 402.145C590.087 395.918 599.6 386.827 603.863 383.645C618.167 372.968 637.662 369.246 655 368M401 420L402 421L401 420z"/>
</svg>
