<?xml version="1.0" standalone="yes"?>
<svg xmlns="http://www.w3.org/2000/svg" width="888" height="508">
<path style="fill:#fcfcfc; stroke:none;" d="M0 0L0 508L888 508L888 0L0 0z"/>
<path style="fill:#282828; stroke:none;" d="M290 200C285.218 197.089 280.328 197.335 274.999 196.113C256.486 191.865 239.295 193.072 222.004 201.1C215.926 203.923 207.586 207.094 204 213L202 212C193.728 220.327 180.936 223.728 172.3 232.145C145.724 258.049 135.656 295.497 131.718 331C130.133 345.288 131.594 359.977 137.941 373C140.34 377.922 142.451 383.358 148 385C144.58 370.274 138.442 355.355 137.978 340C137.825 334.923 139.453 330.003 139.897 325C142.841 291.775 156.889 254.458 183.09 232.326C189.703 226.74 198.611 223.386 206 218.907C217.247 212.089 227.768 203.461 241 200.722C255.605 197.699 270.574 203.381 285 204C278.397 214.969 272.189 226.989 267.664 239C261.735 254.735 258.163 271.472 251.854 287C246.601 299.929 240.652 312.636 234.069 325C231.138 330.504 227.133 335.065 225 341C215.123 337.88 204.07 327.953 193 330.329C182.276 332.63 178.953 347.497 184.394 355.892C186.94 359.82 192.621 362.413 197 363.664C208.986 367.087 218.663 353.86 228 349C230.005 351.33 233.083 351.48 236 352.404C241.126 354.026 246.637 355.334 252 355.875C257.478 356.428 262.888 355.548 268 358C273.557 353.724 282.232 354.348 288.576 351.444C295.707 348.18 304.331 344.615 310.711 340.102C314.886 337.148 317.065 332.964 322 331C323.41 326.37 327.472 324.284 330.51 320.7C334.782 315.66 339.667 307.433 341.25 300.999C347.53 275.468 335.134 246.638 320.81 226.425C314.058 216.897 308.463 208.618 297 204C300.765 193.9 311.12 186.004 319.75 180.019C336.425 168.456 353.36 158.773 372 150.944C395.181 141.207 417.472 127.662 441.961 121.406C453.406 118.482 467.185 119.104 478.83 118.806C489.693 118.527 500.715 117.26 511.615 117.839C517.849 118.17 523.861 120.284 530 120.79C551.789 122.586 573.268 124.867 594 132.101C602.616 135.108 613.29 139.751 620.911 144.813C630.114 150.926 637.504 159.413 646.7 165.59C652.872 169.736 657.399 176.467 665 178C669.405 167.06 653.076 163.164 647 156C640.761 155.37 636.335 148.432 631.729 144.68C623.295 137.808 613.81 133.551 603.985 129.046C586.091 120.839 565.482 117.376 546.015 115.309C540.015 114.672 534.024 113.528 528 113.089C523.859 112.787 519.567 113.28 516 111C508.965 111.417 501.998 110.305 495 110.398C481.948 110.573 468.976 112.595 456 113.83C451.369 114.271 446.593 113.486 442 114.26C428.198 116.586 414.707 124.187 402 129.625C378.418 139.716 353.127 148.067 332 162.921C317.726 172.958 297.793 183.625 290 200z"/>
<path style="fill:#fcfcfc; stroke:none;" d="M630 145L631 146L630 145M309 183C310.457 181.897 310.897 181.457 312 180C309.876 180.899 309.899 180.876 309 183M291 209C288.699 212.498 286.276 215.378 283 218C283.25 227.385 275.997 238.162 273.004 247C265.599 268.863 258.532 290.948 249.066 312C243.982 323.305 234.554 333.772 232 346C244.212 348.851 258.338 352.351 271 350.816C279.46 349.79 288.289 344.494 295.424 340.116C299.07 337.879 303.3 336.551 306.83 334.175C317.255 327.16 329.447 313.101 333.03 301C335.101 294.004 334.325 288.101 333.804 281C332.547 263.851 326.867 249.276 317.448 234.91C313.436 228.79 309.173 217.761 301 217C298.626 213.097 295.179 210.759 291 209z"/>
<path style="fill:#282828; stroke:none;" d="M659 242C659.027 239.715 658.854 237.239 660.028 235.173C666.978 222.942 690.77 234.925 682.987 246.826C678.417 253.813 669.379 254.849 661.996 256.629C641.926 261.466 603.247 264.338 603 292C608.149 291.129 609.5 287.111 612.519 283.3C614.893 280.305 617.804 278.032 621 276C619.208 284.278 615.102 291.975 612.461 300C609.312 309.564 607.369 319.408 604.189 329C601.409 337.386 599.75 347.768 593.236 354.291C583.371 364.17 560.149 357.012 553.768 372.468C550.515 380.35 556.998 387.088 565 385.596C574.174 383.885 587.804 374.943 591 366C594.187 365.608 596.113 363.361 599.174 362.474C608.436 359.788 620.372 358.674 630 359C637.377 353.323 649.466 353.347 658 349.544C670.471 343.987 680.583 331.928 688.326 321.29C692.208 315.956 699.134 298.031 690 295C684.688 303.957 684.637 314.477 677.982 323.076C674.632 327.404 670.463 331.135 665.997 334.275C662.164 336.97 658.157 338.698 656 343C649.408 342.416 644.301 346.185 638.196 347.919C626.736 351.175 614.702 352.003 603 354C607.127 344.783 610.495 335.617 613.492 326C614.883 321.538 615.224 315.943 618.43 312.326C622.632 307.583 629.499 304.345 635 301.385C641.892 297.677 648.607 293.56 656 290.876C659.91 289.456 664.041 289.162 667.999 287.957C673.731 286.212 680.54 281.606 679 275C657.407 281.233 637.144 292.433 618 304C621.906 296.853 623.217 288.747 625.367 281C625.951 278.898 625.761 276.285 627.027 274.43C629.351 271.025 637.175 269.173 641 268.239C651.195 265.75 661.746 264.556 672 262.332C676.763 261.298 681.221 258.453 686 258C688.363 252.893 694.146 248.211 693.145 242C690.668 226.634 668.135 216.026 655.888 226.988C651.101 231.273 649.243 236.623 650.859 242.907C652.122 247.82 658.773 251.873 663.771 249.346C669.607 246.396 661.975 242.335 659 242M382 382L382 384C393.408 386.707 404.004 378.364 412.09 371.116C424.848 359.679 435.191 345.679 444 331C448.799 323.002 453.016 311.101 460.221 305.093C468.12 298.506 477.538 295.121 486.576 290.5C492.105 287.673 497.141 286.601 499 280C486.844 278.056 474.963 289.443 464 294C467.285 289.465 468.68 284.18 471.709 279.615C482.55 263.276 498.393 246.611 517.17 239.51C520.931 238.087 525.099 238.281 529 237.533C537.271 235.947 544.69 233.332 552.961 237.369C562.933 242.236 561.28 255.45 555.366 262.941C553.581 265.201 549.402 266.226 548.176 268.58C546.288 272.206 552.215 274.918 554.985 274.149C558.701 273.117 561.163 268.996 563.159 266C570.014 255.713 571.475 242.3 560.41 234.144C546.205 223.675 522.418 229.532 508 236.489C489.299 245.514 475.054 260.58 464.605 278.424C459.088 287.846 454.77 298.004 449.331 307.424C438.283 326.559 426.289 348.453 409.831 363.536C401.376 371.285 391.738 376.187 382 382M676 365C684.158 359.174 693.575 356.528 701.891 351.387C704.187 349.968 706.244 346.151 703.396 344.046C700.359 341.801 694.95 345.358 692.286 346.847C686.887 349.865 681.315 352.555 676 355.735C672.443 357.862 668.936 360.904 665 362.272C659.46 364.199 652.865 361.461 647.039 362.221C630.432 364.385 612.895 368.406 599 378.375C590.569 384.424 584.644 393.021 587.303 403.91C589.063 411.115 600.362 413.389 605 408C611.705 408.062 619.381 402.836 625 399.364C632.916 394.472 640.511 389.679 647.911 384C653.512 379.701 658.874 374.412 665 370.873C668.104 369.079 671.674 370.817 675 370.821C680.816 370.828 687.182 370.263 693 369.776C712.13 368.177 733.152 354.239 738.153 334.91C743.424 314.537 729.969 298.194 727.21 279C725.883 269.771 729.161 259.092 733.489 251.004C739.649 239.492 751.476 236.209 764 236.443C772.154 236.595 780.322 243.044 778.718 252C777.559 258.479 767.048 274.691 759.974 264.836C758.935 263.389 758.241 261.41 757.714 259.719C757.119 257.807 757.058 255.984 757 254C742.67 258.255 756.812 277.785 767.999 275.541C780.727 272.988 790.491 253.335 783.721 242.17C773.139 224.719 743.538 226.385 730.474 240.54C726.016 245.37 724.367 251.83 722.714 258C720.082 267.828 718.443 274.751 720.899 285C725.155 302.76 737.093 320.855 727.099 338.985C725.383 342.098 723.109 345.074 720.622 347.611C716.732 351.581 712.367 355.209 707.579 358.041C697.411 364.055 686.72 361.823 676 365z"/>
<path style="fill:#fcfcfc; stroke:none;" d="M329.333 253.667C329.278 253.722 329.222 254.778 329.667 254.333C329.722 254.278 329.778 253.222 329.333 253.667z"/>
<path style="fill:#282828; stroke:none;" d="M426 278C417.046 273.813 409.956 266.389 400.996 262.26C387.497 256.039 363.409 258.11 359 275C365.273 276.524 367.625 271.247 372.834 268.681C376.027 267.107 380.622 266.481 383 264C387.812 265.816 393.246 266.235 397.907 268.39C402.482 270.505 406.972 274.203 411.09 277.118C414.21 279.328 419.081 281.277 420.543 285.093C422.359 289.831 417.287 294.809 415.731 299.001C410.273 313.712 402.542 330.952 392.257 342.91C387.592 348.335 382.326 353.174 376.421 357.236C372.216 360.128 367.99 359.988 369 366C389.505 364.359 404.111 342.277 411.77 325C413.125 321.944 415.163 319.178 416.233 316C418.638 308.86 421.638 302.91 424.906 296C426.25 293.158 427.219 289.545 429.429 287.238C432.772 283.748 438.643 284.988 443 284.11C450.158 282.666 455.62 278.213 459.231 271.981C461.088 268.776 462.82 266.397 461 263C465.821 255.34 454.311 253.24 449.004 255.272C439.507 258.909 430.07 268.867 426 278z"/>
<path style="fill:#fcfcfc; stroke:none;" d="M451 259C445.228 265.745 437.169 268.973 434 278C446.157 277.999 452.787 272.955 456 261C454.255 260.11 452.875 259.547 451 259z"/>
<path style="fill:#282828; stroke:none;" d="M534 275C526.716 292.693 523.444 311.861 516.911 330C515.318 334.423 513.618 338.815 511.389 342.961C510.097 345.363 507.844 347.946 508.761 350.85C510.576 356.599 519.451 353.252 524 354.117C535.508 356.303 550.362 357.319 562 355.535C566.374 354.865 572.399 353.729 575 350C580.013 350.006 584.28 346.48 587.695 342.946C590.492 340.052 592.92 336.985 594.826 333.424C599.695 324.325 593.232 316.688 584 314.604C575.579 312.703 568.128 315.83 563.388 323.015C561.517 325.85 559.605 329.487 560.604 332.981C563.008 341.383 574.224 341.589 576 333C573.166 332.157 570.945 331.731 568 332C570.092 325.406 573.745 320.778 581.015 320.959C584.081 321.036 587.445 321.678 588.546 325.034C590.71 331.627 579.91 339.819 575.075 342.211C570.862 344.295 566.652 346.805 562 347.772C547.951 350.693 532.106 347.345 518 346C524.197 335.205 527.068 322.969 529.843 311C531.404 304.274 533.796 297.958 534.014 291C534.185 285.527 536.947 280.018 534 275M348 351C352.314 355.937 363.998 350.227 368.3 347.115C381.656 337.453 392.483 322.861 394 306C399.167 305.716 402.139 303.838 404.35 298.996C405.222 297.087 406.798 292.718 403.718 291.83C401.582 291.214 399.023 293.486 397 294L396 299L394 299C393.376 295.493 392.568 292.271 391.107 289C388.433 283.01 381.451 275.528 374.015 277.532C370.496 278.481 368.102 281.75 365.13 283.678C351.494 292.526 339.575 308.793 336.467 325C334.724 334.086 336.342 350.023 348 351M506 279C499.577 292.818 493.143 306.673 487.876 321C485.245 328.155 484.003 335.786 481.424 343C479.78 347.601 477.998 352.981 478.318 357.956C478.472 360.354 480.67 363.508 483.42 361.863C485.174 360.814 485.767 357.798 486.3 355.999C487.876 350.687 489.486 345.373 490.84 340C494.22 326.579 499.473 314.104 503.833 301C505.763 295.196 506.548 287.31 511 283C509.627 280.453 508.782 279.812 506 279z"/>
<path style="fill:#fcfcfc; stroke:none;" d="M376 283C371.169 291.155 373.368 294.972 379 302C382.084 301.633 384.914 301.658 388 302C386.074 293.579 384.142 289.028 378 283L376 283M364 286C356.435 300.407 339.28 316.917 343.46 335C344.405 339.087 346.654 342.599 349 346C352.936 345.267 357.35 345.17 361 343.427C373.686 337.37 383.878 321.721 385 308C375.61 307.39 368.806 301.746 365.502 293.001C364.637 290.712 364.775 288.274 364 286M192 354C199.873 356.083 207.629 356.422 213 349L215 350C216.438 347.958 217.372 346.403 218 344C211.287 341.47 191.957 329.419 190.518 344.001C190.196 347.263 191.566 350.774 192 354M560 380C567.348 378.854 577.291 373.602 581 367C572.926 367.234 560.72 370.656 560 380M655 368C637.743 369.238 618.089 372.894 603.87 383.626C599.614 386.838 589.948 395.942 595.032 402.254C598.773 406.899 607.345 400.074 611.039 398.499C622.297 393.698 632.069 386.541 642 379.513C646.928 376.026 651.953 373.41 655 368z"/>
<path style="fill:#282828; stroke:none;" d="M401 420L402 421L401 420z"/>
</svg>
